<!-- public/icons/whatsapp.svg -->
<svg xmlns="http://www.w3.org/2000/svg" fill="currentColor" viewBox="0 0 24 24">
  <path d="M20.52 3.48A11.88 11.88 0 0012.01 0C5.38 0 .02 5.36.02 11.99c0 2.12.56 4.18 1.62 6.01L0 24l6.18-1.62a11.94 11.94 0 005.83 1.49h.01c6.63 0 12-5.36 12-11.99 0-3.2-1.25-6.21-3.5-8.4zM12 21.54a9.48 9.48 0 01-4.85-1.31l-.35-.21-3.66.96.98-3.57-.23-.37a9.47 9.47 0 01-1.45-5.02c0-5.26 4.28-9.54 9.54-9.54 2.55 0 4.95.99 6.75 2.79a9.49 9.49 0 012.79 6.76c0 5.26-4.28 9.53-9.52 9.53zm5.27-7.12c-.29-.14-1.7-.84-1.97-.94-.27-.1-.47-.14-.67.14s-.77.94-.94 1.13c-.17.19-.35.21-.65.07s-1.26-.46-2.4-1.47c-.89-.79-1.49-1.77-1.67-2.07-.17-.29-.02-.45.13-.59.14-.13.29-.34.43-.51.14-.17.19-.29.29-.48.1-.19.05-.36-.02-.5-.07-.14-.67-1.6-.91-2.19-.24-.58-.48-.5-.67-.5h-.57c-.19 0-.5.07-.76.36-.26.29-1 1-.97 2.43.03 1.42.97 2.79 1.11 2.98.14.19 1.9 2.88 4.61 4.04.64.28 1.14.45 1.53.57.64.2 1.23.17 1.7.1.52-.08 1.7-.69 1.94-1.35.24-.66.24-1.23.17-1.35-.07-.12-.26-.19-.55-.33z"/>
</svg>
